<?xml version="1.0" encoding="utf-8"?>
<svg viewBox="117.351 176.22 286.212 139.04" xmlns="http://www.w3.org/2000/svg" xmlns:bx="https://boxy-svg.com">
  <path style="stroke: #ae8625; fill: none; stroke-linecap: round; stroke-linejoin: round; stroke-width: 4px;" d="M 227.217 181.145 C 227.217 181.145 217.132 200.579 212.054 210.613 C 204.208 226.117 189.243 244.87 189.243 244.974 C 189.243 245.078 174.773 264.234 163.939 272.638 C 159.267 276.262 156.013 279.572 151.18 281.352 C 146.905 282.926 142.013 283.899 137.591 282.804 C 132.778 281.612 128.338 278.383 125.247 274.506 C 122.845 271.493 121.306 267.565 121.097 263.717 C 120.862 259.395 122.405 254.997 124.417 251.165 C 128.395 243.587 134.746 237.377 141.118 231.664 C 145.545 227.694 150.681 224.545 155.848 221.601 C 163.738 217.106 172.032 213.27 180.537 210.087 C 186.4 207.893 192.448 206.124 198.587 204.9 C 204.56 203.709 210.719 201.911 216.74 202.826 C 221.485 203.547 226.599 205.164 229.914 208.635 C 233.089 211.96 234.518 216.916 234.893 221.498 C 235.403 227.73 233.113 233.835 231.439 239.859 C 229.782 245.823 227.678 251.841 224.935 257.39 C 222.734 261.844 220.947 266.765 217.38 270.222 C 215.34 272.199 212.004 275.599 209.479 274.298 C 208.124 273.599 208.679 271.179 209.167 269.734 C 210.493 265.811 214.106 262.613 216.978 259.63 C 221.338 255.102 225.955 251.106 231.055 247.431 C 234.745 244.772 239.592 241.704 243.483 240.605 C 243.483 240.605 249.188 239.074 250.993 240.591 C 253.296 242.527 252.096 247.479 251.161 250.104 C 249.373 255.125 245.373 259.532 245.578 264.858 C 245.687 267.687 246.817 271.021 249.209 272.535 C 251.838 274.2 255.528 273.298 258.545 272.535 C 263.27 271.34 267.092 267.847 271.408 265.584 C 275.393 263.494 278.316 260.231 282.546 258.696 C 285.014 257.8 287.984 257.776 290.477 258.596 C 292.664 259.315 294.64 261.014 294.125 263.095 C 293.064 267.385 288.824 270.229 284.823 272.105 C 282.765 273.07 278.657 274.086 276.905 272.638 C 274.291 270.477 275.348 265.231 277.32 262.472 C 279.649 259.212 284.627 257.185 288.524 258.116 C 293.104 259.21 293.648 261.117 293.648 261.117 C 295.27 261.695 291.109 268.833 295.266 271.808 C 298.024 273.782 303.313 273.439 306.455 272.162 C 312.308 269.784 317.44 265.826 321.074 260.657 C 323.5 257.205 325.674 253.26 328.403 249.772 C 330.111 247.589 333.129 242.037 333.129 242.037 L 325.302 241.724 L 340.644 242.628 L 333.023 241.975 L 343.855 223.206 C 343.855 223.206 330.812 245.761 323.586 257.078 C 321.471 260.39 320.575 265.29 322.341 268.8 C 323.351 270.808 325.915 271.983 328.15 272.223 C 334.086 272.862 339.886 269.415 345.162 266.622 C 348.169 265.03 353.253 260.398 353.253 260.398 C 353.253 260.398 349.483 265.294 350.245 267.867 C 350.929 270.176 353.765 271.752 356.158 272.016 C 361.736 272.632 366.961 266.136 371.878 263.431 C 375.748 261.302 382.714 260.228 382.714 260.228 C 382.714 260.228 369.724 261.726 369.332 266.659 C 369.048 270.225 374.572 272.651 378.149 272.638 C 384.893 272.614 393.606 267.867 393.606 267.867"/>
  <path style="fill: none; stroke: #ae8625; stroke-linecap: round; stroke-width: 3px;" d="M 387.094 250.032 L 393.445 244.819" transform="matrix(1, 0.000279, -0.000279, 1, 0.06939, -0.108682)" bx:origin="0.391 0.736"/>
  <path style="fill: none; stroke: #ae8625; stroke-width: 2px;" d="M 120.582 289.564 L 399.015 287.881"/>
</svg>