<?xml version="1.0" encoding="utf-8"?>
<svg version="1.1" id="Layer_1" x="0px" y="0px" viewBox="541.835 397.034 226.646 225.167" style="enable-background:new 0 0 1400 980;" xmlns="http://www.w3.org/2000/svg">
  <style type="text/css">
	.st0{fill:#E8E7EA;}
	.st1{fill:#232021;}
</style>
  <path class="st0" d="M 1730.892 317.747 L 1515.892 317.747 C 1500.192 317.747 1487.492 305.047 1487.492 289.347 L 1487.492 74.347 C 1487.492 58.647 1500.192 45.947 1515.892 45.947 L 1730.892 45.947 C 1746.592 45.947 1759.292 58.647 1759.292 74.347 L 1759.292 289.347 C 1759.292 305.047 1746.592 317.747 1730.892 317.747 Z"/>
  <path class="st0" d="M 2038.292 317.747 L 1823.292 317.747 C 1807.592 317.747 1794.892 305.047 1794.892 289.347 L 1794.892 74.347 C 1794.892 58.647 1807.592 45.947 1823.292 45.947 L 2038.292 45.947 C 2053.992 45.947 2066.692 58.647 2066.692 74.347 L 2066.692 289.347 C 2066.692 305.047 2053.992 317.747 2038.292 317.747 Z"/>
  <path class="st0" d="M 2345.692 317.747 L 2130.692 317.747 C 2114.992 317.747 2102.292 305.047 2102.292 289.347 L 2102.292 74.347 C 2102.292 58.647 2114.992 45.947 2130.692 45.947 L 2345.692 45.947 C 2361.392 45.947 2374.092 58.647 2374.092 74.347 L 2374.092 289.347 C 2374.092 305.047 2361.392 317.747 2345.692 317.747 Z"/>
  <path class="st0" d="M 2653.092 317.747 L 2438.092 317.747 C 2422.392 317.747 2409.692 305.047 2409.692 289.347 L 2409.692 74.347 C 2409.692 58.647 2422.392 45.947 2438.092 45.947 L 2653.092 45.947 C 2668.792 45.947 2681.492 58.647 2681.492 74.347 L 2681.492 289.347 C 2681.492 305.047 2668.792 317.747 2653.092 317.747 Z"/>
  <path class="st0" d="M 2653.092 625.147 L 2438.092 625.147 C 2422.392 625.147 2409.692 612.447 2409.692 596.747 L 2409.692 381.747 C 2409.692 366.047 2422.392 353.347 2438.092 353.347 L 2653.092 353.347 C 2668.792 353.347 2681.492 366.047 2681.492 381.747 L 2681.492 596.747 C 2681.492 612.447 2668.792 625.147 2653.092 625.147 Z"/>
  <path class="st0" d="M 2345.692 625.147 L 2130.692 625.147 C 2114.992 625.147 2102.292 612.447 2102.292 596.747 L 2102.292 381.747 C 2102.292 366.047 2114.992 353.347 2130.692 353.347 L 2345.692 353.347 C 2361.392 353.347 2374.092 366.047 2374.092 381.747 L 2374.092 596.747 C 2374.092 612.447 2361.392 625.147 2345.692 625.147 Z"/>
  <path class="st0" d="M 2038.292 625.147 L 1823.292 625.147 C 1807.592 625.147 1794.892 612.447 1794.892 596.747 L 1794.892 381.747 C 1794.892 366.047 1807.592 353.347 1823.292 353.347 L 2038.292 353.347 C 2053.992 353.347 2066.692 366.047 2066.692 381.747 L 2066.692 596.747 C 2066.692 612.447 2053.992 625.147 2038.292 625.147 Z"/>
  <path class="st0" d="M 1730.892 625.147 L 1515.892 625.147 C 1500.192 625.147 1487.492 612.447 1487.492 596.747 L 1487.492 381.747 C 1487.492 366.047 1500.192 353.347 1515.892 353.347 L 1730.892 353.347 C 1746.592 353.347 1759.292 366.047 1759.292 381.747 L 1759.292 596.747 C 1759.292 612.447 1746.592 625.147 1730.892 625.147 Z"/>
  <path class="st0" d="M 1730.892 932.547 L 1515.892 932.547 C 1500.192 932.547 1487.492 919.847 1487.492 904.147 L 1487.492 689.147 C 1487.492 673.447 1500.192 660.747 1515.892 660.747 L 1730.892 660.747 C 1746.592 660.747 1759.292 673.447 1759.292 689.147 L 1759.292 904.147 C 1759.292 919.847 1746.592 932.547 1730.892 932.547 Z"/>
  <path class="st0" d="M 2038.292 932.547 L 1823.292 932.547 C 1807.592 932.547 1794.892 919.847 1794.892 904.147 L 1794.892 689.147 C 1794.892 673.447 1807.592 660.747 1823.292 660.747 L 2038.292 660.747 C 2053.992 660.747 2066.692 673.447 2066.692 689.147 L 2066.692 904.147 C 2066.692 919.847 2053.992 932.547 2038.292 932.547 Z"/>
  <path class="st0" d="M 2345.692 932.547 L 2130.692 932.547 C 2114.992 932.547 2102.292 919.847 2102.292 904.147 L 2102.292 689.147 C 2102.292 673.447 2114.992 660.747 2130.692 660.747 L 2345.692 660.747 C 2361.392 660.747 2374.092 673.447 2374.092 689.147 L 2374.092 904.147 C 2374.092 919.847 2361.392 932.547 2345.692 932.547 Z"/>
  <path class="st0" d="M 2653.092 932.547 L 2438.092 932.547 C 2422.392 932.547 2409.692 919.847 2409.692 904.147 L 2409.692 689.147 C 2409.692 673.447 2422.392 660.747 2438.092 660.747 L 2653.092 660.747 C 2668.792 660.747 2681.492 673.447 2681.492 689.147 L 2681.492 904.147 C 2681.492 919.847 2668.792 932.547 2653.092 932.547 Z"/>
  <g transform="matrix(1, 0, 0, 1, -240.080444, -153.961166)">
    <path class="st1" d="M192.8,277.6c1.5,1.5,4,1.5,5.5,0l1.5-1.5c1.5-1.5,1.5-4,0-5.5l-31.8-31.8c-2.2-2.2-2.2-5.6,0-7.8 s5.6-2.2,7.8,0l31.8,31.8c1.5,1.5,4,1.5,5.5,0l0,0c1.5-1.5,1.5-4,0-5.5l-31.7-31.7c-2.1-2.1-2.3-5.7-0.2-7.8 c2.1-2.2,5.7-2.2,7.9-0.1l31.8,31.8c1.5,1.5,4,1.5,5.5,0v0c1.5-1.5,1.5-4,0-5.5l-31.7-31.7c-2.1-2.1-2.3-5.7-0.2-7.8 c2.1-2.2,5.7-2.2,7.9-0.1l31.8,31.8c1.5,1.5,4,1.5,5.5,0l0,0c1.5-1.5,1.5-4,0-5.5L207.7,199c-2.2-2.2-2.2-5.6,0-7.8l0,0 c2.2-2.2,5.6-2.2,7.8,0l31.8,31.8c1.5,1.5,4,1.5,5.5,0h0c1.5-1.5,1.5-4,0-5.5L221,185.7c-2.2-2.2-2.2-5.6,0-7.8l0,0 c2.2-2.2,5.6-2.2,7.8,0l31.8,31.8c1.5,1.5,4,1.5,5.5,0l0,0c1.5-1.5,1.5-4,0-5.5l-31.7-31.7c-2.1-2.1-2.3-5.7-0.2-7.8 c2.1-2.2,5.7-2.2,7.9-0.1l31.8,31.8c1.5,1.5,4,1.5,5.5,0l0,0c1.5-1.5,1.5-4,0-5.5l-31.7-31.7c-2.1-2.1-2.3-5.7-0.2-7.8 c2.1-2.2,5.7-2.2,7.9-0.1l31.8,31.8c1.5,1.5,4,1.5,5.5,0c1.5-1.5,1.5-4,0-5.5L260.9,146c-2.1-2.1-2.3-5.7-0.2-7.8 c2.1-2.2,5.7-2.2,7.9-0.1l31.8,31.8c1.5,1.5,4,1.5,5.5,0v0c1.5-1.5,1.5-4,0-5.5l-31.8-31.8c-2.2-2.2-2.2-5.6,0-7.8l0,0 c2.2-2.2,5.6-2.2,7.8,0l31.8,31.8c1.5,1.5,4,1.5,5.5,0l0,0c1.5-1.5,1.5-4,0-5.5l-31.8-31.8c-2.2-2.2-2.2-5.6,0-7.8 c2.2-2.2,5.6-2.2,7.8,0l31.8,31.8c1.5,1.5,4,1.5,5.5,0l1.5-1.5c1.5-1.5,1.5-4,0-5.5l-45.2-45.2c-6.5-6.5-16.9-6.5-23.4,0 L147.5,209.1c-6.5,6.5-6.5,16.9,0,23.4L192.8,277.6z"/>
  </g>
  <g transform="matrix(1, 0, 0, 1, 221.413849, -235.236481)">
    <path class="st1" d="M572.4,189.7c-4.7-2.2-10.2-16.5-10.2-16.5c-2.8-13.5,7.7-24.1,13-35.9c0.9-2.1,1.5-3.9,1.8-5.5 c1.1-5.4-3.1-10.4-8.6-10.4h-9.2h-25.9h-9.2c-5.5,0-9.7,5-8.6,10.4c0.3,1.6,0.9,3.4,1.8,5.5c5.3,11.8,15.8,22.4,13,35.9 c0,0-5.5,14.3-10.2,16.5c-4.7,2.2-67.5,12-70.3,31.6c-2.8,19.6,22.9,22.4,22.9,22.4h60.6h25.9h60.6c0,0,25.7-2.9,22.9-22.4 C639.9,201.8,577.1,192,572.4,189.7z M528.6,130.3c0-0.7,0.6-1.3,1.3-1.3h32.8c0.7,0,1.3,0.6,1.3,1.3s-0.6,1.3-1.3,1.3h-32.8 C529.2,131.6,528.6,131.1,528.6,130.3z M529.4,139.5c0-0.7,0.6-1.3,1.3-1.3h31c0.7,0,1.3,0.6,1.3,1.3s-0.6,1.3-1.3,1.3h-31 C530,140.8,529.4,140.2,529.4,139.5z M531.6,150.1c-0.7,0-1.3-0.6-1.3-1.3c0-0.7,0.6-1.3,1.3-1.3H561c0.7,0,1.3,0.6,1.3,1.3 c0,0.7-0.6,1.3-1.3,1.3H531.6z"/>
  </g>
  <g transform="matrix(1, 0, 0, 1, 316.702118, 59.036194)">
    <path class="st1" d="M840.8,168.9v95c0,7.1,5.8,12.9,12.9,12.9c7.1,0,12.9-5.8,12.9-12.9v-95c0-18.7,3.4-29.2,5.8-34.2h38.2V88.3 H796.8v46.4h38.2C837.4,139.8,840.8,150.2,840.8,168.9z M860.5,259.8c0,3.8-3.1,6.8-6.8,6.8c-3.8,0-6.8-3.1-6.8-6.8V245h13.6 V259.8z M897.2,115h-87v-4.4h87V115z M897.2,120.8v4.4h-87v-4.4H897.2z M803.5,95.3h100.3v34.6h-3.8v-24.6h-92.8v24.6h-3.8V95.3z"/>
  </g>
  <g transform="matrix(1, 0, 0, 1, -654.864807, -221.223495)">
    <path class="st1" d="M1238.5,199.2c-2.2,0-4.4,0.3-6.5,0.9l-124-80.4c-8.8-5.7-20.4-3.6-26.8,4.5l-0.1,0l-3.3,5.1l80.3,52.1 l1.8-2.7l55.6,36.1c-0.8,1.9-1.3,4-1.6,6.1l-59.2-0.4l0-3.3l-95.7-0.6l0,3.9l0,0.5c0,0,0,0,0,0l0,1.7l0.1,0 c0.8,10.3,9.4,18.4,19.9,18.5l142.5,0.8c4.4,4.2,10.4,6.7,17,6.7c13.7,0,24.8-11.1,24.8-24.8 C1263.2,210.3,1252.1,199.2,1238.5,199.2z M1246.3,233.5c-2.1,1.8-4.9,2.8-7.9,2.8c-6.8,0-12.3-5.5-12.3-12.3 c0-0.8,0.1-1.5,0.2-2.3c0.1-0.3,0.1-0.6,0.2-0.9c1.4-5.3,6.2-9.2,11.9-9.2c2.8,0,5.5,1,7.6,2.6c2.9,2.3,4.8,5.8,4.8,9.8 C1250.8,227.8,1249,231.2,1246.3,233.5z"/>
  </g>
  <g transform="matrix(1, 0, 0, 1, -464.288208, -445.431244)">
    <path class="st1" d="M220.5,427.9v25.6c-16.9,0-39.2,29.3-39.2,46.2v68.4c0,14.4,11.6,26,26,26h63.2c14.4,0,26-11.6,26-26v-68.4 c0-16.9-24.1-46.2-41.1-46.2v-25.6h-3v-5.1l11.9,8.8c0,0,11.6-10.6,7.5-17.7c-3.5-6.2-13.1-24.4-33.3-27.8 c-4.9-0.8-9.8,1.3-12.6,5.2h-15.5v2.4h-8.1v10.5h8.1v2.9h7.2c-6.5,11.8-15.2,25.3-23.6,31.4h-1.5c-3.2,0-5.8,2.6-5.8,5.8h11.6 c0,0,13.5-14.9,25.7-24.1v7.7H220.5z M278.7,501.9v49.2h-81.1v-49.2H278.7z M263.1,418.7c1.5,0,2.8,1.3,2.8,2.8s-1.3,2.8-2.8,2.8 c-1.5,0-2.8-1.3-2.8-2.8S261.5,418.7,263.1,418.7z"/>
    <rect x="219.4" y="515.6" class="st1" width="36.6" height="6.2"/>
    <rect x="211.4" y="530.3" class="st1" width="52.6" height="6.2"/>
  </g>
  <g transform="matrix(1, 0, 0, 1, 465.239746, -506.154175)">
    <path class="st1" d="M582.7,390.7c-35.7-1.6-53.1,14.7-68.6,19.6c-15.5,4.9-33,4.9-33,4.9h-19.7c-4.8,0-8.7,3.9-8.7,8.7v6.5v12.7 v6.5c0,4.8,3.9,8.7,8.7,8.7h19.7c0,0,17.5,0,33,4.9c12.8,4.1,26.9,15.9,51.6,19c0.1,1.6,0.2,3.3,0.3,5.2h-1h-0.4 c-2.9,0-5.1,2.5-4.8,5.4l0.2,1.6l1.6,14l-0.5,10.3h12.1c2.8,11.9,4,24.1,0.4,33.2c0,0,5.6,2.7,12.7,3.9c-0.5,2.4-1.3,4.6-2.4,6.4 c-3.3,5.2-4.3,10.7-2.9,15.6c1,3.5,3.9,8.3,11.5,11.7l3.3-7.3c-3.9-1.7-6.3-4-7.1-6.7c-0.8-2.6-0.1-5.8,1.9-9 c1.9-3,3-6.6,3.7-10.2c4.2-0.3,8.3-1.5,11.7-4.4c0,0,1.1-23.1-1.1-32.3c-1.7-7-4.9-23.3-5.4-38.8c13.8-2.6,32.3-8.1,39.8-19.8 c0.2-0.3,0.3-0.7,0.3-1v-1.1c0-1-0.8-1.9-1.9-1.9h-1.6c-1,0-1.8-0.8-1.8-1.8v-1.5c0-1,0.8-1.8,1.8-1.8h1.6c1,0,1.9-0.8,1.9-1.9 c0-1-0.8-1.9-1.9-1.9h-1.6c-1,0-1.8-0.8-1.8-1.8v-1.5c0-1,0.8-1.8,1.8-1.8h1.6c1,0,1.9-0.8,1.9-1.9c0-1-0.8-1.9-1.9-1.9h-1.6 c-1,0-1.8-0.8-1.8-1.8v-1.5c0-1,0.8-1.8,1.8-1.8h1.6c1,0,1.9-0.8,1.9-1.9v-1.8v0h-3.5c-1,0-1.8-0.8-1.8-1.8v-1.5 c0-1,0.8-1.8,1.8-1.8h1.6c1,0,1.9-0.8,1.9-1.9s-0.8-1.9-1.9-1.9h-1.6c-1,0-1.8-0.8-1.8-1.8v-1.5c0-1,0.8-1.8,1.8-1.8h1.6 c1,0,1.9-0.8,1.9-1.9v-0.9c0-0.4-0.1-0.7-0.3-1C626.8,392.8,582.7,390.7,582.7,390.7z M599.4,461.1c-4.7,3.2-10.4,5.1-16.6,5.1 c-1.8,0-3.5-0.2-5.1-0.5c-13.8-2.4-24.4-14.5-24.4-29.1c0-16.3,13.2-29.5,29.5-29.5s29.5,13.2,29.5,29.5 C612.4,446.8,607.2,455.8,599.4,461.1z"/>
    <circle class="st1" cx="582.9" cy="436.7" r="22.5"/>
  </g>
  <g transform="matrix(1, 0, 0, 1, -198.975693, 17.931469)">
    <path class="st1" d="M953.9,431.6l0.3,1.5c0.1,0.5-0.1,1-0.6,1.3c-0.7,0.4-1.6,0-1.8-0.8l-0.2-0.9l-2.2,1.1l0.3,1.7 c0.1,0.5-0.1,1-0.6,1.3c-0.7,0.4-1.6,0-1.8-0.8l-0.2-1L945,436l0.3,1.9c0.1,0.5-0.1,1-0.6,1.3c-0.7,0.4-1.6,0-1.8-0.8l-0.2-1.2 l-2.2,1.1l0.4,2.1c0.1,0.5-0.1,1-0.6,1.3c-0.7,0.4-1.6,0-1.8-0.8l-0.3-1.4l-2.2,1.1l0.4,2.3c0.1,0.5-0.1,1-0.6,1.3 c-0.7,0.4-1.6,0-1.8-0.8l-0.3-1.6l-2.2,1.1l0.5,2.5c0.1,0.5-0.1,1-0.6,1.3c-0.7,0.4-1.6,0-1.8-0.8l-0.3-1.8l-2.2,1.1l0.5,2.7 c0.1,0.5-0.1,1-0.6,1.3c-0.7,0.4-1.6,0-1.8-0.8l-0.4-2l-2.2,1.1l0.5,2.8c0.1,0.5-0.1,1-0.6,1.3c-0.7,0.4-1.6,0-1.8-0.8l-0.4-2.2 l-2.2,1.1l0.6,3c0.1,0.5-0.1,1-0.6,1.3c-0.7,0.4-1.6,0-1.8-0.8l-0.4-2.3l-2.2,1.1l0.6,3.2c0.1,0.5-0.1,1-0.6,1.3 c-0.7,0.4-1.6,0-1.8-0.8l-0.5-2.5l-2.2,1.1l0.6,3.4c0.1,0.5-0.1,1-0.6,1.3c-0.7,0.4-1.6,0-1.8-0.8l-0.5-2.7l-2.2,1.1l0.7,3.6 c0.1,0.5-0.1,1-0.6,1.3c-0.7,0.4-1.6,0-1.8-0.8l-0.6-2.9l-2.2,1.1l0.7,3.8c0.1,0.5-0.1,1-0.6,1.3c-0.7,0.4-1.6,0-1.8-0.8l-0.6-3.1 l-2.2,1.1l0.7,4c0.1,0.5-0.1,1-0.6,1.3c-0.7,0.4-1.6,0-1.8-0.8l-0.6-3.3l-2.2,1.1l0.8,4.2c0.1,0.5-0.1,1-0.6,1.3v0 c-0.7,0.4-1.6,0-1.8-0.8l-0.7-3.5l-2.2,1.1l0.8,4.3c0.1,0.5-0.1,1-0.6,1.3c-0.7,0.4-1.6,0-1.8-0.8l-0.7-3.6l-4.7,2.3l-3-1.6 l-1.6-3l40.8-82.2c0,0-3.7-1.3-6.5,3.6l-49.1,83.8c-20.5,7.1-49.3,18.4-60,22.7c-5.4-11-20.2-16.1-34.5-11.3 c-15.4,5.1-24.4,19.7-20.1,32.5c4.3,12.8,20.2,19,35.6,13.9c14-4.7,22.7-17.1,21-29l34.4-6.2c4.3-1.5,9.5,0.7,12.7,2.5 c1.8,3.2,4,8.4,2.5,12.7l-6.2,34.4c-11.9-1.7-24.3,7-29,21c-5.1,15.4,1.1,31.3,13.9,35.6c12.8,4.3,27.4-4.7,32.5-20.1 c4.8-14.3-0.3-29.1-11.3-34.5c4.3-10.7,15.6-39.5,22.7-60l83.8-49.1c4.8-2.8,3.6-6.5,3.6-6.5L953.9,431.6z M779.7,520.8 c-11.5,3.8-23.5-0.8-26.7-10.4c-3.2-9.6,3.6-20.5,15.1-24.4c11.5-3.8,23.5,0.8,26.7,10.4C798,506.1,791.3,517,779.7,520.8z M857.7,575.6c-3.8,11.5-14.7,18.3-24.4,15.1S819,575.5,822.9,564c3.8-11.5,14.7-18.3,24.4-15.1S861.5,564,857.7,575.6z M864.6,477.9c0.2,0.2,0.4,0.4,0.5,0.7c0.7,1.2,0.6,2.9-0.5,3.9c-1.1,1-2.7,1.2-3.9,0.5c-0.2-0.1-0.5-0.3-0.7-0.5 c-1.2-1.2-1.3-3.4,0-4.6C861.3,476.8,863.3,476.7,864.6,477.9z"/>
  </g>
  <g transform="matrix(1, 0, 0, 1, 171.901306, -380.971497)">
    <path class="st1" d="M1102.4,414.1c-3.6,0-6.5,2.9-6.5,6.5v56.7v39.4h6.6c3.7,16.4,18.3,28.7,35.9,28.7h4.4v5.6 c0,8.2,6.6,14.9,14.9,14.9h6.8c8.2,0,14.9-6.6,14.9-14.9v-5.6h4.4c17.5,0,32.2-12.3,35.9-28.7h6.6v-39.4v-56.7 c0-3.6-2.9-6.5-6.5-6.5h-0.3v63.2h-10.9v-59.6c0-1.9-1.5-3.4-3.4-3.4c-1.9,0-3.4,1.5-3.4,3.4v59.6H1191v-59.6 c0-1.9-1.5-3.4-3.4-3.4c-1.9,0-3.4,1.5-3.4,3.4v59.6h-10.9v-59.6c0-1.9-1.5-3.4-3.4-3.4h0c-1.9,0-3.4,1.5-3.4,3.4v59.6h-10.9 v-59.6c0-1.9-1.5-3.4-3.4-3.4c-1.9,0-3.4,1.5-3.4,3.4v59.6H1138v-59.6c0-1.9-1.5-3.4-3.4-3.4c-1.9,0-3.4,1.5-3.4,3.4v59.6h-10.9 v-59.6c0-1.9-1.5-3.4-3.4-3.4s-3.4,1.5-3.4,3.4v59.6h-10.9v-63.2H1102.4z M1122.6,513.2c-0.1-1-0.2-1.9-0.2-2.9v0 c0-1.2,0.9-2.1,2.1-2.1h73.2c1.2,0,2.1,0.9,2.1,2.1v0c0,1-0.1,2-0.2,2.9H1122.6z M1179.4,534.5c-1.3,0.2-2.7,0.4-4.1,0.4H1147 c-1.4,0-2.8-0.1-4.1-0.4c-8.8-1.5-16-7.7-19-15.9h74.5C1195.4,526.8,1188.2,533,1179.4,534.5z"/>
  </g>
  <g transform="matrix(1, 0, 0, 1, 14.890055, -791.150635)">
    <path class="st1" d="M334.6,756.5l-25.4,25.4l-5.1-5.1l23.7-23.7c0.9-0.9,0.9-2.3,0-3.2c-0.9-0.9-2.3-0.9-3.2,0L301,773.6 l-5.1-5.1l23.7-23.7c0.9-0.9,0.9-2.3,0-3.2c-0.9-0.9-2.3-0.9-3.2,0l-23.7,23.7l-5.1-5.1l23.7-23.7c0.9-0.9,0.9-2.3,0-3.2 c-0.9-0.9-2.3-0.9-3.2,0l-23.7,23.7l-5.1-5.1l23.7-23.7c0.9-0.9,0.9-2.3,0-3.2c-0.9-0.9-2.3-0.9-3.2,0l-23.7,23.7l-5.1-5.1 l23.7-23.7c0.9-0.9,0.9-2.3,0-3.2c-0.9-0.9-2.3-0.9-3.2,0l-23.7,23.7l-5.1-5.1l23.7-23.7c0.9-0.9,0.9-2.3,0-3.2 c-0.9-0.9-2.3-0.9-3.2,0l-23.7,23.7l-5.1-5.1l25.4-25.4l-0.1-0.1c-1.7-1.7-4.4-1.7-6.1,0L251.4,724l-17.6,17.6l-0.1,0 c0,0-0.1,0-0.1,0l-59.1,59.1c0,0-46.9,41.2-28.3,83.9c1.1,2.4,3,4.4,5.4,5.4c42.7,18.7,83.9-28.3,83.9-28.3l58.4-58.4l0.2,0.2 l18.5-18.5l22.3-22.3c1.7-1.7,1.7-4.4,0-6.1L334.6,756.5z M284.6,788.1L284.6,788.1c-0.5,0.5-1,0.9-1.5,1.3L247,753.3 c0.4-0.5,0.8-1,1.3-1.5l0,0c0.5-0.5,1.4-0.5,2,0l34.3,34.3C285.1,786.7,285.1,787.6,284.6,788.1z M263.7,789.9 c-0.7-0.5-1.4-1.1-2.1-1.8l-13.2-13.2c-0.7-0.7-1.3-1.4-1.8-2.1c-3.4-4.8-3.9-11.1-1.4-16.4l34.9,34.9 C274.8,793.8,268.5,793.3,263.7,789.9z M273.1,812.2l-0.1,0.1c-0.1,0.1-18.1,18.5-35.3,35.1c-13.5,13-34.9,12.8-48.1-0.5h0 c-13.2-13.2-13.4-34.6-0.5-48.1c16.5-17.2,35-35.3,35.1-35.3l0.1-0.1l0.2-0.2l15.9,15.9l-1.5,1.5c-3.8,3.8-3.8,10.1,0,13.9 l3.2,3.2c3.8,3.8,10.1,3.8,13.9,0l1.5-1.5l15.9,15.9L273.1,812.2z"/>
  </g>
  <g transform="matrix(1, 0, 0, 1, 682.908142, -806.032043)">
    <path class="st1" d="M632.1,756c-0.6-0.6-1.5-0.6-2,0l-23.5,23.5l-1.4-1.4l23.6-23.6c0.5-0.5,0.4-1.4-0.2-2.1s-1.6-0.7-2.1-0.2 l-23.6,23.6l-1.4-1.4l23.6-23.6c0.5-0.5,0.4-1.4-0.2-2.1c-0.6-0.6-1.6-0.7-2.1-0.2L599.1,772l-1.4-1.4l23.6-23.6 c0.5-0.5,0.4-1.4-0.2-2.1c-0.6-0.6-1.6-0.7-2.1-0.2l-23.6,23.6l-1.4-1.4l23.6-23.6c0.5-0.5,0.4-1.4-0.2-2.1 c-0.6-0.6-1.6-0.7-2.1-0.2l-23.6,23.6l-1.4-1.4l23.6-23.6c0.5-0.5,0.4-1.4-0.2-2.1c-0.6-0.6-1.6-0.7-2.1-0.2L588,760.8l-1.4-1.4 l23.6-23.6c0.5-0.5,0.4-1.4-0.2-2.1c-0.6-0.6-1.6-0.7-2.1-0.2l-23.6,23.6l-1.4-1.4l23.6-23.6c0.5-0.5,0.4-1.4-0.2-2.1 c-0.6-0.6-1.6-0.7-2.1-0.2l-23.6,23.6l-1.4-1.4l23.6-23.6c0.5-0.5,0.4-1.4-0.2-2.1c-0.6-0.6-1.6-0.7-2.1-0.2l-23.6,23.6l-1.4-1.4 l23.6-23.6c0.5-0.5,0.4-1.4-0.2-2.1s-1.6-0.7-2.1-0.2L573,745.9l-1.4-1.4l23.6-23.6c0.5-0.5,0.4-1.4-0.2-2.1h0 c-0.6-0.6-1.6-0.7-2.1-0.2l-23.6,23.6l-1.4-1.4l23.6-23.6c0.5-0.5,0.4-1.4-0.2-2.1c-0.6-0.6-1.6-0.7-2.1-0.2l-23.6,23.6l-1.4-1.4 l23.5-23.5c0.6-0.6,0.6-1.5,0-2l-0.2-0.2c-0.6-0.6-1.5-0.6-2,0l-23.8,23.8l-1.3,1.3l0,0l-5.2,5.2l-10.2,35.6c-0.8,2.8,0,5.9,2,7.9 l3,3l-89.6,93.1c-0.6,0.7-0.6,1.7,0,2.4c0.6,0.6,1.7,0.7,2.4,0l93.1-89.6l2.8,2.8c2.1,2.1,5.1,2.9,7.9,2l35.6-10.2l5.2-5.2 l1.6-1.6l23.5-23.5c0.6-0.6,0.6-1.5,0-2L632.1,756z"/>
  </g>
  <g transform="matrix(1, 0, 0, 1, 87.823395, -671.507385)">
    <path class="st1" d="M874.1,807.8h-39l-6.5,15.1c-1.9,4.3-1.7,9.2,0.4,13.2h51.2c2-4,2.3-8.9,0.4-13.2L874.1,807.8z"/>
    <path class="st1" d="M877.4,851c2.4-3.4,3.1-7.7,2.1-11.7h-50c-0.8,3.5-0.4,7.1,1.2,10.2c-2.4,3-4,7.1-3.6,12.7 c0,0-1.1,17.8,17.6,19.2h17.6c18.7-1.3,17.6-19.2,17.6-19.2C880.3,857.4,879.2,853.8,877.4,851z"/>
    <path class="st1" d="M870.9,792.3l36.4-59.1c-2.5-2.1-5.5-4.4-9-6.5L870.7,777l22-53.7c-2.9-1.6-6-3-9.4-4.3l-22.2,61.7l15.8-63.8 c-3.2-0.9-6.5-1.7-10-2.3l-13.1,57.1l6.1-57.9c-1.7-0.1-3.3-0.2-5.1-0.2v0c-0.4,0-0.7,0-1.1,0c-0.4,0-0.7,0-1.1,0v0 c-1.1,0-2.2,0.1-3.2,0.1l-2.6,64.7l-5.9-63.8c-2.5,0.4-5,0.9-7.3,1.5l6.6,58.6c0,0-7.7-39.4-11.2-57.3c-3.2,1-6.2,2.2-9,3.4 l16.6,61.6l-21.7-59.1c-2.3,1.2-4.4,2.5-6.3,3.7l18.8,48l-23.4-44.8c-2.2,1.6-4.1,3.2-5.8,4.7c9,14.9,31.5,52.4,31.7,54.8 c0.3,2.4-26-37.5-35.2-51.6c-3.4,3.4-5.1,5.7-5.1,5.7l43,59.8h42.3l43-59.8c0,0-1.7-2.3-5-5.6L870.9,792.3z"/>
  </g>
  <g transform="matrix(1, 0, 0, 1, -0.925514, 129.101135)">
    <path class="st1" d="M1234.1,740.1c2.2-3.1,1.9-7.4-0.9-10.2l-4.8-4.8c-2.8-2.8-7.1-3.1-10.2-0.9l-9.9-9.9c-0.6-0.6-1.6-0.6-2.2,0 l-0.2,0.2c-0.6,0.6-0.6,1.6,0,2.2l9.8,9.8l-1.1,1.1l-9.8-9.8c-0.6-0.6-1.6-0.6-2.2,0l-0.2,0.2c-0.6,0.6-0.6,1.6,0,2.2l9.8,9.8 l-1.1,1.1l-9.8-9.8c-0.6-0.6-1.6-0.6-2.2,0l-0.2,0.2c-0.6,0.6-0.6,1.6,0,2.2l9.8,9.8l-1.1,1.1l-9.8-9.8c-0.6-0.6-1.6-0.6-2.2,0 l-0.2,0.2c-0.6,0.6-0.6,1.6,0,2.2l9.8,9.8l-1.1,1.1l-9.8-9.8c-0.6-0.6-1.6-0.6-2.2,0l-0.2,0.2c-0.6,0.6-0.6,1.6,0,2.2l9.8,9.8 l-1.1,1.1l-9.8-9.8c-0.6-0.6-1.6-0.6-2.2,0l-0.2,0.2c-0.6,0.6-0.6,1.6,0,2.2l9.8,9.8l-1.1,1.1l-9.8-9.8c-0.6-0.6-1.6-0.6-2.2,0 l-0.2,0.2c-0.6,0.6-0.6,1.6,0,2.2l9.8,9.8l-1.1,1.1l-9.8-9.8c-0.6-0.6-1.6-0.6-2.2,0l-0.2,0.2c-0.6,0.6-0.6,1.6,0,2.2l9.8,9.8 l-1.1,1.1l-9.8-9.8c-0.6-0.6-1.6-0.6-2.2,0l-0.2,0.2c-0.6,0.6-0.6,1.6,0,2.2l9.8,9.8l-1.1,1.1l-9.8-9.8c-0.6-0.6-1.6-0.6-2.2,0 l-0.2,0.2c-0.6,0.6-0.6,1.6,0,2.2l9.8,9.8l-1.1,1.1l-9.8-9.8c-0.6-0.6-1.6-0.6-2.2,0l-0.2,0.2c-0.6,0.6-0.6,1.6,0,2.2l9.8,9.8 l-1.1,1.1l-9.8-9.8c-0.6-0.6-1.6-0.6-2.2,0l-0.2,0.2c-0.6,0.6-0.6,1.6,0,2.2l9.8,9.8l-1.1,1.1l-9.8-9.8c-0.6-0.6-1.6-0.6-2.2,0 l-0.2,0.2c-0.6,0.6-0.6,1.6,0,2.2l9.8,9.8l-1.1,1.1l-9.8-9.8c-0.6-0.6-1.6-0.6-2.2,0l-0.2,0.2c-0.6,0.6-0.6,1.6,0,2.2l9.8,9.8 l-1.1,1.1l-9.8-9.8c-0.6-0.6-1.6-0.6-2.2,0l-0.2,0.2c-0.6,0.6-0.6,1.6,0,2.2l9.8,9.8l-1.1,1.1l-9.8-9.8c-0.6-0.6-1.6-0.6-2.2,0 l-0.2,0.2c-0.6,0.6-0.6,1.6,0,2.2l9.8,9.8l-1.1,1.1l-9.8-9.8c-0.6-0.6-1.6-0.6-2.2,0l-0.2,0.2c-0.6,0.6-0.6,1.6,0,2.2l9.8,9.8 l-1.1,1.1l-9.8-9.8c-0.6-0.6-1.6-0.6-2.2,0l-0.2,0.2c-0.6,0.6-0.6,1.6,0,2.2l9.8,9.8l-1.1,1.1l-9.8-9.8c-0.6-0.6-1.6-0.6-2.2,0 l-0.2,0.2c-0.6,0.6-0.6,1.6,0,2.2l9.8,9.8l-1.1,1.1l-9.8-9.8c-0.6-0.6-1.6-0.6-2.2,0l-0.2,0.2c-0.6,0.6-0.6,1.6,0,2.2l9.8,9.8 l-1.1,1.1l-9.8-9.8c-0.6-0.6-1.6-0.6-2.2,0l-0.2,0.2c-0.6,0.6-0.6,1.6,0,2.2l9.8,9.8l-2.2,2.2l0.6,6.3l-26.1,18.9l-38.7,38.7 c-2.7,2.7-2.7,7.1,0,9.8l6.7,6.7c2.7,2.7,7.1,2.7,9.8,0l38.7-38.7l18.8-26l6.6,0.7l2.2-2.2l9.8,9.8c0.6,0.6,1.6,0.6,2.2,0l0.2-0.2 c0.6-0.6,0.6-1.6,0-2.2l-10.1-10.1l1.1-1.1l10.1,10.1c0.6,0.6,1.6,0.6,2.2,0l0.2-0.2c0.6-0.6,0.6-1.6,0-2.2l-10.1-10.1l1.1-1.1 l10.1,10.1c0.6,0.6,1.6,0.6,2.2,0l0.2-0.2c0.6-0.6,0.6-1.6,0-2.2l-10.1-10.1l1.1-1.1l10.1,10.1c0.6,0.6,1.6,0.6,2.2,0l0.2-0.2 c0.6-0.6,0.6-1.6,0-2.2l-10.1-10.1l1.1-1.1l10.1,10.1c0.6,0.6,1.6,0.6,2.2,0l0.2-0.2c0.6-0.6,0.6-1.6,0-2.2l-10.1-10.1l1.1-1.1 l10.1,10.1c0.6,0.6,1.6,0.6,2.2,0l0.2-0.2c0.6-0.6,0.6-1.6,0-2.2l-10.1-10.1l1.1-1.1l10.1,10.1c0.6,0.6,1.6,0.6,2.2,0l0.2-0.2 c0.6-0.6,0.6-1.6,0-2.2l-10.1-10.1l1.1-1.1l10.1,10.1c0.6,0.6,1.6,0.6,2.2,0l0.2-0.2c0.6-0.6,0.6-1.6,0-2.2l-10.1-10.1l1.1-1.1 l10.1,10.1c0.6,0.6,1.6,0.6,2.2,0l0.2-0.2c0.6-0.6,0.6-1.6,0-2.2l-10.1-10.1l1.1-1.1l10.1,10.1c0.6,0.6,1.6,0.6,2.2,0l0.2-0.2 c0.6-0.6,0.6-1.6,0-2.2l-10.1-10.1l1.1-1.1l10.1,10.1c0.6,0.6,1.6,0.6,2.2,0l0.2-0.2c0.6-0.6,0.6-1.6,0-2.2l-10.1-10.1l1.1-1.1 l10.1,10.1c0.6,0.6,1.6,0.6,2.2,0l0.2-0.2c0.6-0.6,0.6-1.6,0-2.2l-10.1-10.1l1.1-1.1l10.1,10.1c0.6,0.6,1.6,0.6,2.2,0l0.2-0.2 c0.6-0.6,0.6-1.6,0-2.2l-10.1-10.1l1.1-1.1l10.1,10.1c0.6,0.6,1.6,0.6,2.2,0l0.2-0.2c0.6-0.6,0.6-1.6,0-2.2l-10.1-10.1l1.1-1.1 l10.1,10.1c0.6,0.6,1.6,0.6,2.2,0l0.2-0.2c0.6-0.6,0.6-1.6,0-2.2l-10.1-10.1l1.1-1.1l10.1,10.1c0.6,0.6,1.6,0.6,2.2,0l0.2-0.2 c0.6-0.6,0.6-1.6,0-2.2l-10.1-10.1l1.1-1.1l10.1,10.1c0.6,0.6,1.6,0.6,2.2,0l0.2-0.2c0.6-0.6,0.6-1.6,0-2.2l-10.1-10.1l1.1-1.1 l10.1,10.1c0.6,0.6,1.6,0.6,2.2,0l0.2-0.2c0.6-0.6,0.6-1.6,0-2.2l-10.1-10.1l1.1-1.1l10.1,10.1c0.6,0.6,1.6,0.6,2.2,0l0.2-0.2 c0.6-0.6,0.6-1.6,0-2.2l-10.1-10.1l1.1-1.1l10.1,10.1c0.6,0.6,1.6,0.6,2.2,0l0.2-0.2c0.6-0.6,0.6-1.6,0-2.2l-10.1-10.1l1.1-1.1 l10.1,10.1c0.6,0.6,1.6,0.6,2.2,0l0.2-0.2c0.6-0.6,0.6-1.6,0-2.2L1234.1,740.1z M1225.9,741.5c0.4-0.4,0.9-0.5,1.4-0.4 c0.2,0.1,0.4,0.2,0.6,0.4c0.5,0.5,0.5,1.4,0,2s-1.4,0.5-2,0c-0.2-0.2-0.3-0.4-0.4-0.6C1225.4,742.4,1225.5,741.9,1225.9,741.5z M1220.8,729c-0.3,0.3-0.8,0.5-1.3,0.4c-0.3-0.1-0.5-0.2-0.7-0.4c-0.5-0.5-0.5-1.4,0-2s1.4-0.5,2,0c0.2,0.2,0.3,0.5,0.4,0.7 C1221.2,728.1,1221.1,728.6,1220.8,729z M1217,732.7c-0.3,0.3-0.8,0.5-1.3,0.4c-0.3-0.1-0.5-0.2-0.7-0.4c-0.5-0.5-0.5-1.4,0-2 c0.5-0.5,1.4-0.5,2,0c0.2,0.2,0.3,0.5,0.4,0.7C1217.5,731.8,1217.4,732.3,1217,732.7z M1211.3,734.4c0.5-0.5,1.4-0.5,2,0 c0.2,0.2,0.3,0.5,0.4,0.7c0.1,0.4,0,0.9-0.4,1.3c-0.5,0.5-1.4,0.5-2,0c-0.2-0.2-0.4-0.5-0.4-0.8 C1210.9,735.2,1211,734.7,1211.3,734.4z M1207.6,738.1c0.5-0.5,1.4-0.5,2,0c0.2,0.2,0.3,0.5,0.4,0.7c0.1,0.4,0,0.9-0.4,1.3 c-0.5,0.5-1.4,0.5-2,0c-0.3-0.3-0.5-0.8-0.4-1.2C1207.3,738.6,1207.4,738.3,1207.6,738.1z M1203.9,741.8c0.5-0.5,1.4-0.5,2,0 c0.2,0.2,0.3,0.5,0.4,0.7c0.1,0.4,0,0.9-0.4,1.3c-0.5,0.5-1.4,0.5-2,0c-0.4-0.4-0.5-1.1-0.3-1.6 C1203.7,742.1,1203.8,742,1203.9,741.8z M1200.2,745.6c0.5-0.5,1.4-0.5,2,0c0.2,0.2,0.3,0.5,0.4,0.7c0.1,0.4,0,0.9-0.4,1.3 c-0.5,0.5-1.4,0.5-2,0c-0.5-0.5-0.5-1.3-0.1-1.8C1200.1,745.6,1200.1,745.6,1200.2,745.6z M1198.5,749.3c0.2,0.2,0.3,0.5,0.4,0.7 c0.1,0.4,0,0.9-0.4,1.3c-0.5,0.5-1.4,0.5-2,0c-0.5-0.5-0.5-1.4,0-2c0,0,0.1,0,0.1-0.1C1197.1,748.7,1197.9,748.7,1198.5,749.3z M1192.8,753c0.1-0.1,0.2-0.2,0.4-0.3c0.5-0.3,1.2-0.2,1.6,0.3c0.2,0.2,0.3,0.5,0.4,0.7c0.1,0.4,0,0.9-0.4,1.3 c-0.4,0.4-0.9,0.5-1.3,0.4c-0.3-0.1-0.5-0.2-0.7-0.4c-0.2-0.2-0.3-0.4-0.4-0.7C1192.3,753.8,1192.4,753.3,1192.8,753z M1189,756.7 c0.2-0.2,0.4-0.3,0.7-0.4c0.5-0.1,1,0,1.3,0.4c0.2,0.2,0.3,0.5,0.4,0.7c0.1,0.4,0,0.9-0.4,1.3c-0.3,0.3-0.8,0.5-1.3,0.4 c-0.3-0.1-0.5-0.2-0.7-0.4c-0.3-0.3-0.4-0.7-0.4-1.1C1188.7,757.2,1188.8,756.9,1189,756.7z M1185.3,760.4 c0.3-0.3,0.7-0.4,1.1-0.4c0.3,0,0.7,0.2,0.9,0.4c0.2,0.2,0.3,0.5,0.4,0.7c0.1,0.4,0,0.9-0.4,1.3c-0.3,0.3-0.8,0.5-1.3,0.4 c-0.3-0.1-0.5-0.2-0.7-0.4c-0.4-0.4-0.5-1-0.3-1.5C1185.1,760.7,1185.2,760.6,1185.3,760.4z M1181.6,764.1 c0.5-0.5,1.2-0.5,1.7-0.2c0.1,0.1,0.2,0.1,0.3,0.2s0.2,0.2,0.2,0.3c0.3,0.5,0.2,1.2-0.2,1.7c-0.3,0.3-0.8,0.5-1.3,0.4 c-0.3-0.1-0.5-0.2-0.7-0.4c-0.5-0.5-0.5-1.2-0.2-1.8C1181.5,764.3,1181.5,764.2,1181.6,764.1z M1179.9,767.9c0.5,0.5,0.5,1.4,0,2 c-0.3,0.3-0.8,0.5-1.3,0.4c-0.3-0.1-0.5-0.2-0.7-0.4c-0.5-0.5-0.5-1.4,0-2c0,0,0,0,0,0C1178.5,767.3,1179.3,767.3,1179.9,767.9z M1176.2,771.6c0.5,0.5,0.5,1.4,0,2c-0.3,0.3-0.8,0.5-1.3,0.4c-0.3-0.1-0.5-0.2-0.7-0.4c-0.5-0.5-0.5-1.4,0-2 c0.1-0.1,0.2-0.2,0.3-0.2C1175,771,1175.7,771.1,1176.2,771.6z M1172.4,775.3c0.5,0.5,0.5,1.4,0,2c-0.3,0.3-0.8,0.5-1.3,0.4 c-0.3-0.1-0.5-0.2-0.7-0.4c-0.5-0.5-0.5-1.4,0-2c0.2-0.2,0.4-0.3,0.6-0.3C1171.5,774.8,1172.1,774.9,1172.4,775.3z M1168.7,779 c0.5,0.5,0.5,1.4,0,2c-0.3,0.3-0.8,0.5-1.3,0.4c-0.3-0.1-0.5-0.2-0.7-0.4c-0.5-0.5-0.5-1.4,0-2c0.3-0.3,0.6-0.4,1-0.4 C1168.1,778.6,1168.4,778.7,1168.7,779z M1166.4,801c0.4-0.4,0.9-0.5,1.4-0.4c0.2,0.1,0.4,0.2,0.6,0.4c0.5,0.5,0.5,1.4,0,2 c-0.5,0.5-1.4,0.5-2,0c-0.2-0.2-0.3-0.4-0.4-0.6C1165.9,801.9,1166,801.4,1166.4,801z M1165,782.7c0.1,0.1,0.2,0.3,0.3,0.5 c0,0.1,0.1,0.2,0.1,0.2c0.1,0.4,0,0.9-0.4,1.3c-0.3,0.3-0.8,0.5-1.3,0.4c-0.3-0.1-0.5-0.2-0.7-0.4c-0.5-0.5-0.5-1.4,0-2 c0.4-0.4,1-0.5,1.5-0.3C1164.7,782.5,1164.9,782.6,1165,782.7z M1161.3,788.4c-0.3,0.3-0.8,0.5-1.3,0.4c-0.3-0.1-0.5-0.2-0.7-0.4 c-0.5-0.5-0.5-1.4,0-2c0.5-0.5,1.4-0.5,2,0c0.2,0.2,0.3,0.5,0.4,0.7C1161.8,787.6,1161.6,788.1,1161.3,788.4z M1157.6,792.1 c-0.3,0.3-0.8,0.5-1.3,0.4c-0.3-0.1-0.5-0.2-0.7-0.4c-0.5-0.5-0.5-1.4,0-2c0.5-0.5,1.4-0.5,2,0c0.2,0.2,0.3,0.5,0.4,0.7 C1158,791.3,1157.9,791.8,1157.6,792.1z M1151.9,793.9c0.5-0.5,1.4-0.5,2,0c0.2,0.2,0.3,0.5,0.4,0.7c0.1,0.4,0,0.9-0.4,1.3 c-0.5,0.5-1.4,0.5-2,0c-0.2-0.2-0.4-0.5-0.4-0.8C1151.4,794.6,1151.5,794.2,1151.9,793.9z M1148.1,797.6c0.5-0.5,1.4-0.5,2,0 c0.2,0.2,0.3,0.5,0.4,0.7c0.1,0.4,0,0.9-0.4,1.3c-0.5,0.5-1.4,0.5-2,0c-0.3-0.3-0.5-0.8-0.4-1.2 C1147.8,798.1,1147.9,797.8,1148.1,797.6z M1159,810.4c-0.5-0.5-0.5-1.4,0-2c0.4-0.4,0.9-0.5,1.4-0.4c0.2,0.1,0.4,0.2,0.6,0.4 c0.5,0.5,0.5,1.4,0,2c-0.2,0.2-0.5,0.3-0.7,0.4C1159.8,810.9,1159.3,810.7,1159,810.4z M1162.7,806.7c-0.5-0.5-0.5-1.4,0-2 c0.4-0.4,0.9-0.5,1.4-0.4c0.2,0.1,0.4,0.2,0.6,0.4c0.5,0.5,0.5,1.4,0,2c-0.3,0.3-0.8,0.4-1.2,0.4 C1163.2,807,1162.9,806.9,1162.7,806.7z M1172.1,799.3c-0.5,0.5-1.4,0.5-2,0c-0.2-0.2-0.3-0.4-0.4-0.6c-0.1-0.5,0-1,0.4-1.4 c0.4-0.4,0.9-0.5,1.4-0.4c0.2,0.1,0.4,0.2,0.6,0.4C1172.7,797.8,1172.7,798.7,1172.1,799.3z M1175.8,795.5c-0.5,0.5-1.4,0.5-2,0 c-0.2-0.2-0.3-0.4-0.4-0.6c-0.1-0.5,0-1,0.4-1.4c0.4-0.4,0.9-0.5,1.4-0.4c0,0,0.1,0,0.1,0c0.2,0.1,0.3,0.2,0.5,0.3 c0.1,0.1,0.2,0.3,0.3,0.5C1176.3,794.5,1176.2,795.1,1175.8,795.5z M1179.6,791.8c-0.5,0.5-1.4,0.5-2,0c-0.2-0.2-0.3-0.4-0.4-0.6 c-0.1-0.5,0-1,0.4-1.4c0.5-0.5,1.4-0.5,2,0c0.3,0.3,0.4,0.6,0.4,1C1180,791.2,1179.8,791.6,1179.6,791.8z M1183.3,788.1 c-0.5,0.5-1.4,0.5-2,0c-0.2-0.2-0.3-0.4-0.4-0.6c-0.1-0.5,0-1,0.4-1.4c0.5-0.5,1.4-0.5,2,0c0.4,0.4,0.5,0.9,0.3,1.4 C1183.6,787.7,1183.4,787.9,1183.3,788.1z M1187,784.4c-0.5,0.5-1.4,0.5-2,0c-0.2-0.2-0.3-0.4-0.4-0.6c-0.1-0.5,0-1,0.4-1.4 c0.5-0.5,1.4-0.5,2,0c0.5,0.5,0.5,1.2,0.2,1.7C1187.1,784.2,1187.1,784.3,1187,784.4z M1190.7,780.7c-0.5,0.5-1.4,0.5-2,0 c-0.2-0.2-0.3-0.4-0.4-0.6c-0.1-0.5,0-1,0.4-1.4c0.5-0.5,1.4-0.5,2,0C1191.2,779.2,1191.2,780.1,1190.7,780.7 C1190.7,780.6,1190.7,780.7,1190.7,780.7z M1194.4,777c-0.1,0.1-0.1,0.1-0.2,0.2c-0.5,0.4-1.3,0.3-1.8-0.2 c-0.2-0.2-0.3-0.4-0.4-0.6c-0.1-0.5,0-1,0.4-1.4c0.5-0.5,1.2-0.5,1.7-0.2c0.1,0.1,0.2,0.1,0.3,0.2c0.1,0.1,0.2,0.2,0.2,0.3 C1195,775.8,1194.9,776.5,1194.4,777z M1198.1,773.2c-0.1,0.1-0.3,0.2-0.5,0.3c-0.5,0.2-1.1,0.1-1.5-0.3c-0.2-0.2-0.3-0.4-0.4-0.6 c-0.1-0.5,0-1,0.4-1.4c0.4-0.4,0.9-0.5,1.4-0.4c0.2,0.1,0.4,0.2,0.6,0.4c0.3,0.3,0.4,0.6,0.4,0.9 C1198.6,772.5,1198.4,772.9,1198.1,773.2z M1201.9,769.5c-0.2,0.2-0.5,0.4-0.8,0.4c-0.4,0-0.8-0.1-1.1-0.4 c-0.2-0.2-0.3-0.4-0.4-0.6c-0.1-0.5,0-1,0.4-1.4c0.4-0.4,0.9-0.5,1.4-0.4c0.2,0.1,0.4,0.2,0.6,0.4c0.4,0.4,0.5,0.9,0.4,1.3 C1202.2,769.1,1202,769.3,1201.9,769.5z M1205.6,765.8c-0.4,0.4-0.9,0.5-1.3,0.4c-0.3-0.1-0.5-0.2-0.7-0.4 c-0.2-0.2-0.3-0.4-0.4-0.6c-0.1-0.5,0-1,0.4-1.4c0.4-0.4,0.9-0.5,1.4-0.4c0.2,0.1,0.4,0.2,0.6,0.4c0.4,0.4,0.5,1.1,0.3,1.6 C1205.8,765.6,1205.7,765.7,1205.6,765.8z M1209.3,762.1c-0.5,0.5-1.4,0.5-2,0c-0.5-0.5-0.5-1.4,0-2c0.4-0.4,0.9-0.5,1.4-0.4 c0.2,0.1,0.4,0.2,0.6,0.4C1209.8,760.6,1209.8,761.4,1209.3,762.1C1209.3,762,1209.3,762.1,1209.3,762.1z M1211,758.4 c-0.5-0.5-0.5-1.4,0-2c0.4-0.4,0.9-0.5,1.4-0.4c0.2,0.1,0.4,0.2,0.6,0.4c0.5,0.5,0.5,1.4,0,2c0,0-0.1,0.1-0.2,0.1 C1212.3,758.9,1211.5,758.9,1211,758.4z M1214.7,754.7c-0.5-0.5-0.5-1.4,0-2c0.4-0.4,0.9-0.5,1.4-0.4c0.2,0.1,0.4,0.2,0.6,0.4 c0.5,0.5,0.5,1.4,0,2c-0.1,0.1-0.3,0.2-0.4,0.3C1215.8,755.2,1215.2,755.1,1214.7,754.7z M1218.4,750.9c-0.5-0.5-0.5-1.4,0-2 c0.4-0.4,0.9-0.5,1.4-0.4c0.2,0.1,0.4,0.2,0.6,0.4c0.5,0.5,0.5,1.4,0,2c-0.2,0.2-0.5,0.3-0.8,0.4 C1219.2,751.4,1218.8,751.3,1218.4,750.9z M1222.2,747.2c-0.5-0.5-0.5-1.4,0-2c0.4-0.4,0.9-0.5,1.4-0.4c0.2,0.1,0.4,0.2,0.6,0.4 c0.5,0.5,0.5,1.4,0,2c-0.3,0.3-0.8,0.5-1.2,0.4C1222.7,747.6,1222.4,747.4,1222.2,747.2z M1231.6,739.8c-0.5,0.5-1.4,0.5-2,0 c-0.2-0.2-0.3-0.4-0.4-0.6c-0.1-0.5,0-1,0.4-1.4c0.4-0.4,0.9-0.5,1.4-0.4c0.2,0.1,0.4,0.2,0.6,0.4 C1232.1,738.3,1232.1,739.2,1231.6,739.8z"/>
  </g>
</svg>